<mxfile host="Electron" modified="2024-07-05T09:20:30.198Z" agent="Mozilla/5.0 (Windows NT 10.0; Win64; x64) AppleWebKit/537.36 (KHTML, like Gecko) draw.io/24.4.13 Chrome/124.0.6367.207 Electron/30.0.6 Safari/537.36" etag="-LBydKLICjzCA5l5A3KX" version="24.4.13" type="device">
  <diagram name="Page-1" id="GrPyed6YagP2HtkeNUPu">
    <mxGraphModel dx="1195" dy="697" grid="1" gridSize="10" guides="1" tooltips="1" connect="1" arrows="1" fold="1" page="1" pageScale="1" pageWidth="850" pageHeight="1100" math="0" shadow="0">
      <root>
        <mxCell id="0" />
        <mxCell id="1" parent="0" />
        <mxCell id="gQoaDJSqaI62pooVhnRh-50" value="" style="group" vertex="1" connectable="0" parent="1">
          <mxGeometry x="80" y="100" width="120.57" height="240" as="geometry" />
        </mxCell>
        <mxCell id="gQoaDJSqaI62pooVhnRh-12" value="" style="rounded=0;whiteSpace=wrap;html=1;fillColor=#99FF33;strokeColor=none;" vertex="1" parent="gQoaDJSqaI62pooVhnRh-50">
          <mxGeometry x="0.5699999999999932" y="60" width="120" height="120" as="geometry" />
        </mxCell>
        <mxCell id="gQoaDJSqaI62pooVhnRh-10" value="" style="ellipse;whiteSpace=wrap;html=1;aspect=fixed;strokeColor=none;fillColor=#99FF33;" vertex="1" parent="gQoaDJSqaI62pooVhnRh-50">
          <mxGeometry x="0.5699999999999932" y="120" width="120" height="120" as="geometry" />
        </mxCell>
        <mxCell id="gQoaDJSqaI62pooVhnRh-9" value="" style="ellipse;whiteSpace=wrap;html=1;aspect=fixed;strokeColor=none;fillColor=#99FF33;" vertex="1" parent="gQoaDJSqaI62pooVhnRh-50">
          <mxGeometry x="0.5699999999999932" width="120" height="120" as="geometry" />
        </mxCell>
        <mxCell id="gQoaDJSqaI62pooVhnRh-1" value="" style="ellipse;whiteSpace=wrap;html=1;fillColor=none;" vertex="1" parent="gQoaDJSqaI62pooVhnRh-50">
          <mxGeometry x="0.5699999999999932" y="20" width="120" height="80" as="geometry" />
        </mxCell>
        <mxCell id="gQoaDJSqaI62pooVhnRh-2" value="" style="ellipse;whiteSpace=wrap;html=1;fillColor=none;" vertex="1" parent="gQoaDJSqaI62pooVhnRh-50">
          <mxGeometry x="0.5699999999999932" y="140" width="120" height="80" as="geometry" />
        </mxCell>
        <mxCell id="gQoaDJSqaI62pooVhnRh-3" value="" style="verticalLabelPosition=bottom;verticalAlign=top;html=1;shape=mxgraph.basic.arc;startAngle=0.7482887224766688;endAngle=0.2533152483999501;" vertex="1" parent="gQoaDJSqaI62pooVhnRh-50">
          <mxGeometry x="0.5699999999999932" width="120" height="120" as="geometry" />
        </mxCell>
        <mxCell id="gQoaDJSqaI62pooVhnRh-4" value="" style="verticalLabelPosition=bottom;verticalAlign=top;html=1;shape=mxgraph.basic.arc;startAngle=0.7482887224766688;endAngle=0.2533152483999501;rotation=-180;" vertex="1" parent="gQoaDJSqaI62pooVhnRh-50">
          <mxGeometry x="0.5699999999999932" y="120" width="120" height="120" as="geometry" />
        </mxCell>
        <mxCell id="gQoaDJSqaI62pooVhnRh-5" value="" style="endArrow=none;html=1;rounded=0;" edge="1" parent="gQoaDJSqaI62pooVhnRh-50">
          <mxGeometry width="50" height="50" relative="1" as="geometry">
            <mxPoint x="60.27999999999997" as="sourcePoint" />
            <mxPoint x="60.27999999999997" y="240" as="targetPoint" />
          </mxGeometry>
        </mxCell>
        <mxCell id="gQoaDJSqaI62pooVhnRh-6" value="" style="endArrow=none;html=1;rounded=0;" edge="1" parent="gQoaDJSqaI62pooVhnRh-50">
          <mxGeometry width="50" height="50" relative="1" as="geometry">
            <mxPoint x="120.57" y="60" as="sourcePoint" />
            <mxPoint x="120.57" y="180" as="targetPoint" />
          </mxGeometry>
        </mxCell>
        <mxCell id="gQoaDJSqaI62pooVhnRh-8" value="" style="endArrow=none;html=1;rounded=0;" edge="1" parent="gQoaDJSqaI62pooVhnRh-50">
          <mxGeometry width="50" height="50" relative="1" as="geometry">
            <mxPoint y="60" as="sourcePoint" />
            <mxPoint y="180" as="targetPoint" />
          </mxGeometry>
        </mxCell>
        <mxCell id="gQoaDJSqaI62pooVhnRh-51" value="" style="group" vertex="1" connectable="0" parent="1">
          <mxGeometry x="70" y="440" width="140" height="130.03999999999996" as="geometry" />
        </mxCell>
        <mxCell id="gQoaDJSqaI62pooVhnRh-20" value="" style="rounded=0;whiteSpace=wrap;html=1;fillColor=#99FF33;strokeColor=none;" vertex="1" parent="gQoaDJSqaI62pooVhnRh-51">
          <mxGeometry y="30" width="140" height="70" as="geometry" />
        </mxCell>
        <mxCell id="gQoaDJSqaI62pooVhnRh-18" value="" style="rhombus;whiteSpace=wrap;html=1;fillColor=#99FF33;strokeColor=none;" vertex="1" parent="gQoaDJSqaI62pooVhnRh-51">
          <mxGeometry width="140" height="60" as="geometry" />
        </mxCell>
        <mxCell id="gQoaDJSqaI62pooVhnRh-19" value="" style="rhombus;whiteSpace=wrap;html=1;fillColor=#99FF33;strokeColor=none;" vertex="1" parent="gQoaDJSqaI62pooVhnRh-51">
          <mxGeometry y="70" width="140" height="60" as="geometry" />
        </mxCell>
        <mxCell id="gQoaDJSqaI62pooVhnRh-13" value="" style="rhombus;whiteSpace=wrap;html=1;fillColor=none;" vertex="1" parent="gQoaDJSqaI62pooVhnRh-51">
          <mxGeometry y="70" width="140" height="60" as="geometry" />
        </mxCell>
        <mxCell id="gQoaDJSqaI62pooVhnRh-14" value="" style="rhombus;whiteSpace=wrap;html=1;fillColor=none;" vertex="1" parent="gQoaDJSqaI62pooVhnRh-51">
          <mxGeometry width="140" height="60" as="geometry" />
        </mxCell>
        <mxCell id="gQoaDJSqaI62pooVhnRh-15" value="" style="endArrow=none;html=1;rounded=0;" edge="1" parent="gQoaDJSqaI62pooVhnRh-51">
          <mxGeometry width="50" height="50" relative="1" as="geometry">
            <mxPoint x="69.71000000000004" y="130.03999999999996" as="sourcePoint" />
            <mxPoint x="69.71000000000004" as="targetPoint" />
          </mxGeometry>
        </mxCell>
        <mxCell id="gQoaDJSqaI62pooVhnRh-16" value="" style="endArrow=none;html=1;rounded=0;" edge="1" parent="gQoaDJSqaI62pooVhnRh-51">
          <mxGeometry width="50" height="50" relative="1" as="geometry">
            <mxPoint y="100" as="sourcePoint" />
            <mxPoint y="30" as="targetPoint" />
          </mxGeometry>
        </mxCell>
        <mxCell id="gQoaDJSqaI62pooVhnRh-17" value="" style="endArrow=none;html=1;rounded=0;" edge="1" parent="gQoaDJSqaI62pooVhnRh-51">
          <mxGeometry width="50" height="50" relative="1" as="geometry">
            <mxPoint x="139.43000000000006" y="100" as="sourcePoint" />
            <mxPoint x="139.42999999999995" y="30" as="targetPoint" />
          </mxGeometry>
        </mxCell>
        <mxCell id="gQoaDJSqaI62pooVhnRh-52" value="" style="group" vertex="1" connectable="0" parent="1">
          <mxGeometry x="380" y="260" width="120" height="150" as="geometry" />
        </mxCell>
        <mxCell id="gQoaDJSqaI62pooVhnRh-24" value="" style="rounded=0;whiteSpace=wrap;html=1;fillColor=#99FF33;strokeColor=none;" vertex="1" parent="gQoaDJSqaI62pooVhnRh-52">
          <mxGeometry y="40" width="120" height="70" as="geometry" />
        </mxCell>
        <mxCell id="gQoaDJSqaI62pooVhnRh-23" value="" style="ellipse;whiteSpace=wrap;html=1;fillColor=#99FF33;strokeColor=none;" vertex="1" parent="gQoaDJSqaI62pooVhnRh-52">
          <mxGeometry y="70" width="120" height="80" as="geometry" />
        </mxCell>
        <mxCell id="gQoaDJSqaI62pooVhnRh-22" value="" style="ellipse;whiteSpace=wrap;html=1;fillColor=#99FF33;" vertex="1" parent="gQoaDJSqaI62pooVhnRh-52">
          <mxGeometry width="120" height="80" as="geometry" />
        </mxCell>
        <mxCell id="gQoaDJSqaI62pooVhnRh-25" value="" style="ellipse;whiteSpace=wrap;html=1;fillColor=none;" vertex="1" parent="gQoaDJSqaI62pooVhnRh-52">
          <mxGeometry y="70" width="120" height="80" as="geometry" />
        </mxCell>
        <mxCell id="gQoaDJSqaI62pooVhnRh-26" value="" style="endArrow=none;html=1;rounded=0;" edge="1" parent="gQoaDJSqaI62pooVhnRh-52">
          <mxGeometry width="50" height="50" relative="1" as="geometry">
            <mxPoint y="110" as="sourcePoint" />
            <mxPoint y="40" as="targetPoint" />
          </mxGeometry>
        </mxCell>
        <mxCell id="gQoaDJSqaI62pooVhnRh-27" value="" style="endArrow=none;html=1;rounded=0;" edge="1" parent="gQoaDJSqaI62pooVhnRh-52">
          <mxGeometry width="50" height="50" relative="1" as="geometry">
            <mxPoint x="120" y="110" as="sourcePoint" />
            <mxPoint x="120" y="40" as="targetPoint" />
          </mxGeometry>
        </mxCell>
        <mxCell id="gQoaDJSqaI62pooVhnRh-53" value="" style="group" vertex="1" connectable="0" parent="1">
          <mxGeometry x="410" y="505" width="60" height="180" as="geometry" />
        </mxCell>
        <mxCell id="gQoaDJSqaI62pooVhnRh-34" value="" style="rounded=0;whiteSpace=wrap;html=1;fillColor=#99FF33;strokeColor=none;" vertex="1" parent="gQoaDJSqaI62pooVhnRh-53">
          <mxGeometry y="30" width="60" height="120" as="geometry" />
        </mxCell>
        <mxCell id="gQoaDJSqaI62pooVhnRh-35" value="" style="ellipse;whiteSpace=wrap;html=1;aspect=fixed;strokeColor=none;fillColor=#99FF33;" vertex="1" parent="gQoaDJSqaI62pooVhnRh-53">
          <mxGeometry y="120" width="60" height="60" as="geometry" />
        </mxCell>
        <mxCell id="gQoaDJSqaI62pooVhnRh-36" value="" style="ellipse;whiteSpace=wrap;html=1;aspect=fixed;strokeColor=none;fillColor=#99FF33;" vertex="1" parent="gQoaDJSqaI62pooVhnRh-53">
          <mxGeometry width="60" height="60" as="geometry" />
        </mxCell>
        <mxCell id="gQoaDJSqaI62pooVhnRh-37" value="" style="ellipse;whiteSpace=wrap;html=1;fillColor=none;" vertex="1" parent="gQoaDJSqaI62pooVhnRh-53">
          <mxGeometry y="10" width="60" height="40" as="geometry" />
        </mxCell>
        <mxCell id="gQoaDJSqaI62pooVhnRh-38" value="" style="ellipse;whiteSpace=wrap;html=1;fillColor=none;" vertex="1" parent="gQoaDJSqaI62pooVhnRh-53">
          <mxGeometry y="130" width="60" height="40" as="geometry" />
        </mxCell>
        <mxCell id="gQoaDJSqaI62pooVhnRh-39" value="" style="verticalLabelPosition=bottom;verticalAlign=top;html=1;shape=mxgraph.basic.arc;startAngle=0.7482887224766688;endAngle=0.2533152483999501;" vertex="1" parent="gQoaDJSqaI62pooVhnRh-53">
          <mxGeometry width="60" height="60" as="geometry" />
        </mxCell>
        <mxCell id="gQoaDJSqaI62pooVhnRh-40" value="" style="verticalLabelPosition=bottom;verticalAlign=top;html=1;shape=mxgraph.basic.arc;startAngle=0.7482887224766688;endAngle=0.2533152483999501;rotation=-180;" vertex="1" parent="gQoaDJSqaI62pooVhnRh-53">
          <mxGeometry y="120" width="60" height="60" as="geometry" />
        </mxCell>
        <mxCell id="gQoaDJSqaI62pooVhnRh-41" value="" style="endArrow=none;html=1;rounded=0;" edge="1" parent="gQoaDJSqaI62pooVhnRh-53">
          <mxGeometry width="50" height="50" relative="1" as="geometry">
            <mxPoint x="29.710000000000036" as="sourcePoint" />
            <mxPoint x="29.920000000000073" y="180" as="targetPoint" />
          </mxGeometry>
        </mxCell>
        <mxCell id="gQoaDJSqaI62pooVhnRh-42" value="" style="endArrow=none;html=1;rounded=0;" edge="1" parent="gQoaDJSqaI62pooVhnRh-53">
          <mxGeometry width="50" height="50" relative="1" as="geometry">
            <mxPoint x="60" y="30" as="sourcePoint" />
            <mxPoint x="60" y="150" as="targetPoint" />
          </mxGeometry>
        </mxCell>
        <mxCell id="gQoaDJSqaI62pooVhnRh-43" value="" style="endArrow=none;html=1;rounded=0;" edge="1" parent="gQoaDJSqaI62pooVhnRh-53">
          <mxGeometry width="50" height="50" relative="1" as="geometry">
            <mxPoint y="30" as="sourcePoint" />
            <mxPoint y="150" as="targetPoint" />
          </mxGeometry>
        </mxCell>
        <mxCell id="gQoaDJSqaI62pooVhnRh-54" value="" style="group" vertex="1" connectable="0" parent="1">
          <mxGeometry x="660" y="390" width="120" height="150" as="geometry" />
        </mxCell>
        <mxCell id="gQoaDJSqaI62pooVhnRh-28" value="" style="rounded=0;whiteSpace=wrap;html=1;fillColor=#99FF33;strokeColor=none;" vertex="1" parent="gQoaDJSqaI62pooVhnRh-54">
          <mxGeometry y="40" width="120" height="70" as="geometry" />
        </mxCell>
        <mxCell id="gQoaDJSqaI62pooVhnRh-29" value="" style="ellipse;whiteSpace=wrap;html=1;fillColor=#99FF33;strokeColor=none;" vertex="1" parent="gQoaDJSqaI62pooVhnRh-54">
          <mxGeometry y="70" width="120" height="80" as="geometry" />
        </mxCell>
        <mxCell id="gQoaDJSqaI62pooVhnRh-30" value="" style="ellipse;whiteSpace=wrap;html=1;fillColor=#99FF33;" vertex="1" parent="gQoaDJSqaI62pooVhnRh-54">
          <mxGeometry width="120" height="80" as="geometry" />
        </mxCell>
        <mxCell id="gQoaDJSqaI62pooVhnRh-31" value="" style="ellipse;whiteSpace=wrap;html=1;fillColor=none;" vertex="1" parent="gQoaDJSqaI62pooVhnRh-54">
          <mxGeometry y="70" width="120" height="80" as="geometry" />
        </mxCell>
        <mxCell id="gQoaDJSqaI62pooVhnRh-32" value="" style="endArrow=none;html=1;rounded=0;" edge="1" parent="gQoaDJSqaI62pooVhnRh-54">
          <mxGeometry width="50" height="50" relative="1" as="geometry">
            <mxPoint y="110" as="sourcePoint" />
            <mxPoint y="40" as="targetPoint" />
          </mxGeometry>
        </mxCell>
        <mxCell id="gQoaDJSqaI62pooVhnRh-33" value="" style="endArrow=none;html=1;rounded=0;" edge="1" parent="gQoaDJSqaI62pooVhnRh-54">
          <mxGeometry width="50" height="50" relative="1" as="geometry">
            <mxPoint x="120" y="110" as="sourcePoint" />
            <mxPoint x="120" y="40" as="targetPoint" />
          </mxGeometry>
        </mxCell>
        <mxCell id="gQoaDJSqaI62pooVhnRh-45" value="" style="ellipse;whiteSpace=wrap;html=1;fillColor=#8EED2F;gradientColor=#77C727;" vertex="1" parent="gQoaDJSqaI62pooVhnRh-54">
          <mxGeometry x="30" y="20" width="60" height="40" as="geometry" />
        </mxCell>
        <mxCell id="gQoaDJSqaI62pooVhnRh-46" value="" style="ellipse;whiteSpace=wrap;html=1;fillColor=none;" vertex="1" parent="gQoaDJSqaI62pooVhnRh-54">
          <mxGeometry x="30" y="90" width="60" height="40" as="geometry" />
        </mxCell>
        <mxCell id="gQoaDJSqaI62pooVhnRh-47" value="" style="endArrow=none;html=1;rounded=0;" edge="1" parent="gQoaDJSqaI62pooVhnRh-54">
          <mxGeometry width="50" height="50" relative="1" as="geometry">
            <mxPoint x="90" y="110" as="sourcePoint" />
            <mxPoint x="90" y="40" as="targetPoint" />
          </mxGeometry>
        </mxCell>
        <mxCell id="gQoaDJSqaI62pooVhnRh-48" value="" style="endArrow=none;html=1;rounded=0;" edge="1" parent="gQoaDJSqaI62pooVhnRh-54">
          <mxGeometry width="50" height="50" relative="1" as="geometry">
            <mxPoint x="30" y="110" as="sourcePoint" />
            <mxPoint x="30" y="40" as="targetPoint" />
          </mxGeometry>
        </mxCell>
        <mxCell id="gQoaDJSqaI62pooVhnRh-56" value="Capsule" style="text;html=1;align=center;verticalAlign=middle;whiteSpace=wrap;rounded=0;fontFamily=&quot;Latin Modern Regular 12&quot;;fontSize=24;" vertex="1" parent="1">
          <mxGeometry x="110.29000000000002" y="350" width="60" height="30" as="geometry" />
        </mxCell>
        <mxCell id="gQoaDJSqaI62pooVhnRh-57" value="Box" style="text;html=1;align=center;verticalAlign=middle;whiteSpace=wrap;rounded=0;fontFamily=&quot;Latin Modern Regular 12&quot;;fontSize=24;" vertex="1" parent="1">
          <mxGeometry x="110" y="580" width="60" height="30" as="geometry" />
        </mxCell>
        <mxCell id="gQoaDJSqaI62pooVhnRh-59" value="∩" style="rounded=0;whiteSpace=wrap;html=1;fontSize=32;fontFamily=&quot;Latin Modern Regular 12&quot;;fontStyle=1;strokeWidth=2;" vertex="1" parent="1">
          <mxGeometry x="280" y="320" width="40" height="40" as="geometry" />
        </mxCell>
        <mxCell id="gQoaDJSqaI62pooVhnRh-61" value="" style="endArrow=classic;html=1;rounded=0;strokeWidth=2;endFill=1;" edge="1" parent="1">
          <mxGeometry width="50" height="50" relative="1" as="geometry">
            <mxPoint x="240" y="240" as="sourcePoint" />
            <mxPoint x="280" y="320" as="targetPoint" />
          </mxGeometry>
        </mxCell>
        <mxCell id="gQoaDJSqaI62pooVhnRh-62" value="" style="endArrow=classic;html=1;rounded=0;strokeWidth=2;endFill=1;" edge="1" parent="1">
          <mxGeometry width="50" height="50" relative="1" as="geometry">
            <mxPoint x="240" y="440" as="sourcePoint" />
            <mxPoint x="280" y="360" as="targetPoint" />
          </mxGeometry>
        </mxCell>
        <mxCell id="gQoaDJSqaI62pooVhnRh-63" value="Capsule" style="text;html=1;align=center;verticalAlign=middle;whiteSpace=wrap;rounded=0;fontFamily=&quot;Latin Modern Regular 12&quot;;fontSize=24;" vertex="1" parent="1">
          <mxGeometry x="410" y="695" width="60" height="30" as="geometry" />
        </mxCell>
        <mxCell id="gQoaDJSqaI62pooVhnRh-64" value="\" style="rounded=0;whiteSpace=wrap;html=1;fontSize=32;fontFamily=&quot;Latin Modern Regular 12&quot;;fontStyle=1;strokeWidth=2;" vertex="1" parent="1">
          <mxGeometry x="560" y="440" width="40" height="40" as="geometry" />
        </mxCell>
        <mxCell id="gQoaDJSqaI62pooVhnRh-65" value="" style="endArrow=classic;html=1;rounded=0;strokeWidth=2;endFill=1;" edge="1" parent="1">
          <mxGeometry width="50" height="50" relative="1" as="geometry">
            <mxPoint x="520" y="360" as="sourcePoint" />
            <mxPoint x="559.9999999999999" y="440" as="targetPoint" />
          </mxGeometry>
        </mxCell>
        <mxCell id="gQoaDJSqaI62pooVhnRh-66" value="" style="endArrow=classic;html=1;rounded=0;strokeWidth=2;endFill=1;" edge="1" parent="1">
          <mxGeometry width="50" height="50" relative="1" as="geometry">
            <mxPoint x="520" y="560" as="sourcePoint" />
            <mxPoint x="560" y="480" as="targetPoint" />
          </mxGeometry>
        </mxCell>
        <mxCell id="gQoaDJSqaI62pooVhnRh-68" value="Cylinder" style="text;html=1;align=center;verticalAlign=middle;whiteSpace=wrap;rounded=0;fontFamily=&quot;Latin Modern Regular 12&quot;;fontSize=24;fontStyle=2" vertex="1" parent="1">
          <mxGeometry x="410" y="420" width="60" height="30" as="geometry" />
        </mxCell>
        <mxCell id="gQoaDJSqaI62pooVhnRh-69" value="Cylinder with a hole" style="text;html=1;align=center;verticalAlign=middle;whiteSpace=wrap;rounded=0;fontFamily=&quot;Latin Modern Regular 12&quot;;fontSize=24;fontStyle=2" vertex="1" parent="1">
          <mxGeometry x="620" y="550" width="200" height="30" as="geometry" />
        </mxCell>
        <mxCell id="gQoaDJSqaI62pooVhnRh-70" value="" style="endArrow=classic;html=1;rounded=0;strokeWidth=2;" edge="1" parent="1">
          <mxGeometry width="50" height="50" relative="1" as="geometry">
            <mxPoint x="320" y="339.58000000000004" as="sourcePoint" />
            <mxPoint x="360" y="339.58000000000004" as="targetPoint" />
          </mxGeometry>
        </mxCell>
        <mxCell id="gQoaDJSqaI62pooVhnRh-71" value="" style="endArrow=classic;html=1;rounded=0;strokeWidth=2;" edge="1" parent="1">
          <mxGeometry width="50" height="50" relative="1" as="geometry">
            <mxPoint x="600" y="459.58000000000004" as="sourcePoint" />
            <mxPoint x="640" y="459.58000000000004" as="targetPoint" />
          </mxGeometry>
        </mxCell>
        <mxCell id="gQoaDJSqaI62pooVhnRh-72" value="" style="endArrow=classic;html=1;rounded=0;strokeWidth=2;" edge="1" parent="1">
          <mxGeometry width="50" height="50" relative="1" as="geometry">
            <mxPoint x="800" y="459.58000000000004" as="sourcePoint" />
            <mxPoint x="840" y="460" as="targetPoint" />
          </mxGeometry>
        </mxCell>
        <mxCell id="gQoaDJSqaI62pooVhnRh-73" value="Targeting" style="text;html=1;align=left;verticalAlign=middle;whiteSpace=wrap;rounded=0;fontSize=24;fontFamily=&quot;Latin Modern Mono 12&quot;;" vertex="1" parent="1">
          <mxGeometry x="850" y="445" width="60" height="30" as="geometry" />
        </mxCell>
        <mxCell id="gQoaDJSqaI62pooVhnRh-74" value="DifferenceTargetingComponent" style="text;html=1;align=left;verticalAlign=middle;whiteSpace=wrap;rounded=0;fontSize=24;fontFamily=&quot;Latin Modern Mono 12&quot;;" vertex="1" parent="1">
          <mxGeometry x="540" y="340" width="60" height="30" as="geometry" />
        </mxCell>
        <mxCell id="gQoaDJSqaI62pooVhnRh-75" value="IntersectionTargetingComponent" style="text;html=1;align=left;verticalAlign=middle;whiteSpace=wrap;rounded=0;fontSize=24;fontFamily=&quot;Latin Modern Mono 12&quot;;" vertex="1" parent="1">
          <mxGeometry x="260" y="220" width="60" height="30" as="geometry" />
        </mxCell>
        <mxCell id="gQoaDJSqaI62pooVhnRh-76" value="TargetingCollider" style="text;html=1;align=center;verticalAlign=middle;whiteSpace=wrap;rounded=0;fontSize=24;fontFamily=&quot;Latin Modern Mono 12&quot;;" vertex="1" parent="1">
          <mxGeometry x="110" y="60" width="60" height="30" as="geometry" />
        </mxCell>
        <mxCell id="gQoaDJSqaI62pooVhnRh-77" value="TargetingCollider" style="text;html=1;align=center;verticalAlign=middle;whiteSpace=wrap;rounded=0;fontSize=24;fontFamily=&quot;Latin Modern Mono 12&quot;;" vertex="1" parent="1">
          <mxGeometry x="110.29" y="400" width="60" height="30" as="geometry" />
        </mxCell>
        <mxCell id="gQoaDJSqaI62pooVhnRh-78" value="TargetingCollider" style="text;html=1;align=center;verticalAlign=middle;whiteSpace=wrap;rounded=0;fontSize=24;fontFamily=&quot;Latin Modern Mono 12&quot;;" vertex="1" parent="1">
          <mxGeometry x="410" y="470" width="60" height="30" as="geometry" />
        </mxCell>
      </root>
    </mxGraphModel>
  </diagram>
</mxfile>
